<svg width="15" height="21" viewBox="0 0 15 21" fill="none" xmlns="http://www.w3.org/2000/svg">
<path id="Vector" d="M4.83084 1.01335C4.60527 0.283684 4.01057 -0.104685 3.44223 0.10323L0.86422 1.04473C0.354477 1.23303 0 1.85285 0 2.55897C0 12.2643 5.87669 20.1336 13.1244 20.1336C13.6517 20.1336 14.1146 19.659 14.2552 18.9764L14.9583 15.5242C15.1136 14.7632 14.8236 13.9668 14.2787 13.6647L11.4663 12.0956C10.9888 11.8288 10.4351 12.0132 10.1099 12.5506L8.92636 14.4846C6.86396 13.1783 5.19411 10.9422 4.21856 8.18051L5.66284 6.59958C6.06419 6.16021 6.20187 5.4227 6.00266 4.78327L4.83084 1.01727V1.01335Z" fill="white"/>
</svg>
