<svg width="1168" height="73" viewBox="0 0 1168 73" fill="none" xmlns="http://www.w3.org/2000/svg">
<path d="M-31 53.4566L-8.11958 57.9113C14.6751 62.366 60.6931 71.2755 106.111 69.7998C151.786 68.2128 197.804 56.5192 243.222 47.5263C288.897 38.7003 334.915 32.5751 380.333 34.1621C426.008 35.6377 472.026 44.5472 517.444 53.4566C563.12 62.366 609.137 71.2755 654.556 72.7511C700.231 74.3381 746.249 68.2128 791.667 57.9113C837.342 47.6098 883.36 32.5751 928.778 35.6377C974.453 38.7003 1020.47 59.3034 1065.89 66.8207C1111.56 74.3381 1157.58 68.2128 1179.86 65.3451L1203 62.366V0H1180.12C1157.32 0 1111.31 0 1065.89 0C1020.21 0 974.196 0 928.778 0C883.103 0 837.085 0 791.667 0C745.992 0 699.974 0 654.556 0C608.88 0 562.862 0 517.444 0C471.769 0 425.751 0 380.333 0C334.658 0 288.64 0 243.222 0C197.547 0 151.529 0 106.111 0C60.436 0 14.4181 0 -7.8625 0H-31V53.4566Z" fill="white"/>
</svg>
