<svg width="1185" height="84" viewBox="0 0 1185 84" fill="none" xmlns="http://www.w3.org/2000/svg">
<path d="M1184.4 18.7898L1162.41 13.8221C1140.51 8.85416 1096.29 -1.08039 1052.71 0.732025C1008.89 2.67125 964.793 16.0454 921.258 26.3624C877.476 36.4912 833.349 43.5657 789.751 41.9133C745.907 40.3877 701.689 30.4531 658.048 20.5167C614.159 10.5811 570.324 2.01481 526.727 0.488411C482.882 -1.16317 438.373 4.54304 394.846 16.3404C351.072 28.1386 306.998 45.2926 263.392 41.9708C219.538 38.6498 175.251 15.486 131.618 7.12442C87.7375 -1.2363 43.61 5.83823 22.2442 9.15271L0.0566176 12.5959L0.429626 83.1521L22.3883 83.08C44.2647 83.0083 88.4288 82.8634 132.017 82.7203C175.852 82.5765 220.016 82.4316 263.605 82.2886C307.44 82.1448 351.604 81.9999 395.192 81.8569C439.027 81.7131 483.192 81.5682 526.78 81.4252C570.615 81.2814 614.779 81.1365 658.367 80.9934C702.203 80.8496 746.367 80.7047 789.955 80.5617C833.79 80.4179 877.954 80.273 921.543 80.13C965.378 79.9862 1009.54 79.8413 1053.13 79.6983C1096.97 79.5544 1141.13 79.4095 1162.51 79.3394L1184.72 79.2665L1184.4 18.7898Z" fill="#F7FFD9"/>
</svg>
