<svg width="1217" height="61" viewBox="0 0 1217 61" fill="none" xmlns="http://www.w3.org/2000/svg">
<path d="M1215.97 15.8796L1193.44 12.2788C1170.99 8.67792 1125.66 1.47657 1080.94 2.72235C1035.97 4.05898 990.671 13.6172 945.96 20.978C900.997 28.2031 855.692 33.2317 810.968 31.9862C765.99 30.8315 720.666 23.6302 675.932 16.4282C630.944 9.22655 585.62 2.0252 540.895 0.870291C495.918 -0.374958 450.613 4.65365 405.905 13.0789C360.943 21.5043 315.65 33.7803 270.924 31.3345C225.944 28.8889 180.604 12.1753 135.872 6.1058C90.8866 0.0365107 45.5819 5.06512 23.6465 7.42016L0.867454 9.86664L0.9505 60.5983L23.4803 60.5754C45.9258 60.5526 91.2387 60.5066 135.961 60.4611C180.936 60.4155 226.249 60.3694 270.971 60.324C315.947 60.2783 361.26 60.2323 405.982 60.1868C450.957 60.1411 496.27 60.0951 540.992 60.0497C585.968 60.004 631.28 59.958 676.003 59.9125C720.978 59.8668 766.291 59.8208 811.013 59.7754C855.988 59.7297 901.301 59.6836 946.024 59.6382C990.999 59.5925 1036.31 59.5465 1081.03 59.501C1126.01 59.4554 1171.32 59.4093 1193.26 59.387L1216.04 59.3639L1215.97 15.8796Z" fill="#FEEAF6"/>
</svg>
